<mxfile host="app.diagrams.net" modified="2023-09-14T09:02:45.194Z" agent="Mozilla/5.0 (Macintosh; Intel Mac OS X 10_15_7) AppleWebKit/605.1.15 (KHTML, like Gecko) Version/16.1 Safari/605.1.15" version="21.7.5" etag="kUgOO9bTPItxFJ1QVWaq" type="github">
  <diagram name="Page-1" id="nV2FWvVAo2iCizJ7a7_f">
    <mxGraphModel>
      <root>
        <mxCell id="0" />
        <mxCell id="1" parent="0" />
      </root>
    </mxGraphModel>
  </diagram>
</mxfile>
